<svg width="19" height="16" viewBox="0 0 19 16" fill="none" xmlns="http://www.w3.org/2000/svg">
<path fill-rule="evenodd" clip-rule="evenodd" d="M9.85714 16C4.80768 16 0.714286 12.4183 0.714286 8C0.714287 3.58172 4.80768 -6.20366e-07 9.85714 -3.99647e-07C14.9066 -1.78928e-07 19 3.58172 19 8C19 12.4183 14.9066 16 9.85714 16ZM9.82112 8.34094C9.68678 9.96346 9.12792 11.2415 8.00316 11.1484C6.87839 11.0553 6.53734 9.7027 6.67168 8.08018C6.80601 6.45765 7.36487 5.17959 8.48964 5.27271C9.6144 5.36584 9.95546 6.71841 9.82112 8.34094ZM12.6446 10.2107C13.4436 10.2769 13.8406 9.36896 13.9361 8.21634C14.0315 7.06372 13.7892 6.10287 12.9902 6.03671C12.1912 5.97056 11.7942 6.87848 11.6987 8.0311C11.6033 9.18372 11.8456 10.1446 12.6446 10.2107Z" fill="#D874B9"/>
</svg>
