<svg width="176" height="180" viewBox="0 0 176 180" fill="none" xmlns="http://www.w3.org/2000/svg">
<path d="M22.166 151.701C18.2632 137.136 39.5215 129.591 50.6385 127.639C70.8332 123.068 84.1386 150.675 54.2015 158.644C52.0511 159.216 49.9216 159.895 47.809 160.594C39.1965 163.444 25.6127 164.564 22.166 151.701Z" fill="#FFBFFB" stroke="black" stroke-width="3"/>
<path d="M155.043 149.701C158.946 135.136 137.687 127.591 126.57 125.639C106.376 121.068 93.0704 148.675 123.007 156.644C125.158 157.216 127.287 157.895 129.4 158.594C138.012 161.444 151.596 162.564 155.043 149.701Z" fill="#FFBFFB" stroke="black" stroke-width="3"/>
<path d="M174 142.998C170.018 147.365 163.813 146.619 160.362 142.998M160.362 142.998C169.089 137.174 171.777 121.585 165.174 121C158.983 121 154.522 137.387 160.362 142.998ZM160.362 142.998C156.38 147.365 150.175 146.619 146.724 142.997M146.724 142.997C155.451 137.174 158.139 121.585 151.536 121C145.345 121 140.884 137.387 146.724 142.997Z" stroke="#FFBFFB" stroke-width="3" stroke-linecap="round"/>
<path d="M139.682 147.195C109.542 166.914 68.8075 159.316 41.6256 148.783C31.0672 144.691 25.003 134.041 25.1478 122.719L25.7973 71.9312C24.0881 34.214 47.181 11.4557 88.1082 9.60101C127.43 7.81908 145.592 35.9451 146.319 51.995L149.631 125.083C150.023 133.728 146.924 142.457 139.682 147.195Z" fill="#FFBFFB" stroke="black" stroke-width="3"/>
<path d="M54.4363 22.9256C50.4212 29.3136 41.8818 39.6426 39.8444 29.8546C37.2977 17.6197 32.7859 13.8895 38.6427 9.86831C44.4996 5.84713 58.76 10.0397 62.8109 23.5183" stroke="black" stroke-width="3"/>
<path d="M49.9987 130.638C30.575 134.808 25.7864 124.314 25.6508 111.519C25.6471 111.167 25.8332 110.839 26.1358 110.659L42.2348 101.062C42.7811 100.736 43.4871 100.998 43.7017 101.597C45.7656 107.355 47.8663 109.969 59.2831 109.213C69.0122 108.568 70.5312 114.5 70.6538 117.599C70.6538 120.5 69.71 126.408 49.9987 130.638Z" fill="#FFBFFB"/>
<path d="M25.6478 110.95C25.6478 124 30.2874 134.869 49.9987 130.638C69.71 126.408 70.6538 120.5 70.6538 117.599C70.5312 114.5 69.0122 108.568 59.2831 109.213C47.1216 110.019 45.5313 107 43.2957 100.43" stroke="black" stroke-width="3"/>
<rect width="45.5271" height="27.4169" transform="matrix(-1 0 0 1 112.581 103.037)" fill="black"/>
<ellipse cx="22.7636" cy="6.16251" rx="22.7636" ry="6.16251" transform="matrix(-1 0 0 1 112.581 97)" fill="black"/>
<ellipse cx="19.7452" cy="3.6472" rx="19.7452" ry="3.6472" transform="matrix(-1 0 0 1 109.562 99.5156)" fill="white"/>
<ellipse cx="22.7636" cy="5.40792" rx="22.7636" ry="5.40792" transform="matrix(-1 0 0 1 112.581 124.92)" fill="black"/>
<ellipse opacity="0.5" cx="19.4937" cy="5.40792" rx="19.4937" ry="5.40792" transform="matrix(-1 0 0 1 109.312 127.184)" fill="black"/>
<path d="M66.9287 106.809C61.9973 106.809 58 111.595 58 117.499C58.0002 123.403 61.9974 128.188 66.9287 128.188C71.8602 128.188 75.8582 123.403 75.8584 117.499C75.8584 111.595 71.8603 106.809 66.9287 106.809ZM66.9297 110.328C70.0552 110.328 72.5889 113.538 72.5889 117.497C72.5887 121.456 70.0551 124.665 66.9297 124.665C63.8041 124.665 61.2697 121.456 61.2695 117.497C61.2695 113.538 63.8041 110.328 66.9297 110.328Z" fill="black"/>
<path d="M123.957 132.638C143.381 136.808 148.17 126.314 148.305 113.519C148.309 113.167 148.123 112.839 147.82 112.659L131.721 103.062C131.175 102.736 130.469 102.998 130.254 103.597C128.19 109.355 126.09 111.969 114.673 111.213C104.944 110.568 103.425 116.5 103.302 119.599C103.302 122.5 104.246 128.408 123.957 132.638Z" fill="#FFBFFB"/>
<path d="M148.339 112.95C148.339 126 143.7 136.869 123.989 132.638C104.277 128.408 103.334 122.5 103.334 119.599C103.456 116.5 104.975 110.568 114.704 111.213C126.866 112.019 128.456 109 130.692 102.43" stroke="black" stroke-width="3"/>
<path d="M124.209 22.7277C129.45 27.658 140.107 34.3076 140.796 21.4639C141.659 5.40928 136.347 -0.442557 125.815 7.31156C117.389 13.5149 114.567 23.9263 114.209 28.3566" stroke="black" stroke-width="3"/>
<path d="M107.5 75C107.5 84.0373 99.7424 91.5 90 91.5C80.2576 91.5 72.5 84.0373 72.5 75C72.5 65.9627 80.2576 58.5 90 58.5C99.7424 58.5 107.5 65.9627 107.5 75Z" fill="#FFBFFB" stroke="black" stroke-width="3"/>
<path d="M89.9352 74.4479C89.9352 77.9075 88.9758 80.7121 86.5775 80.7121C84.1792 80.7121 83.2197 77.9075 83.2197 74.4479C83.2197 70.9882 84.1792 68.1836 86.5775 68.1836C88.9758 68.1836 89.9352 70.9882 89.9352 74.4479Z" fill="black"/>
<path d="M98.6768 74.2626C98.6768 76.7203 97.9953 78.7126 96.2915 78.7126C94.5878 78.7126 93.9062 76.7203 93.9062 74.2626C93.9062 71.8049 94.5878 69.8125 96.2915 69.8125C97.9953 69.8125 98.6768 71.8049 98.6768 74.2626Z" fill="black"/>
<circle opacity="0.4" cx="52.263" cy="87.263" r="15.263" fill="#E7AAD4"/>
<circle opacity="0.4" cx="127.263" cy="87.263" r="15.263" fill="#E7AAD4"/>
<circle cx="62" cy="63" r="6" fill="black"/>
<circle cx="118" cy="63" r="6" fill="black"/>
<circle cx="62" cy="66" r="2" fill="white"/>
<circle cx="118" cy="66" r="2" fill="white"/>
</svg>
